<?xml version="1.0" encoding="utf-8"?>
<!-- Generator: Adobe Illustrator 26.0.1, SVG Export Plug-In . SVG Version: 6.00 Build 0)  -->
<svg version="1.1" id="Layer_1" xmlns="http://www.w3.org/2000/svg" xmlns:xlink="http://www.w3.org/1999/xlink" x="0px" y="0px"
	 viewBox="0 0 609.7 827.2" style="enable-background:new 0 0 609.7 827.2;" xml:space="preserve">
<style type="text/css">
	.st0{fill:#FFFFFF;}
	.st1{fill:none;stroke:#958F8E;stroke-width:2;}
	.st2{fill:none;stroke:#F58E92;stroke-width:2;}
	.st3{fill:none;stroke:#928F90;stroke-width:2;}
	.st4{fill:none;stroke:#E29A9B;stroke-width:2;}
	.st5{fill:none;stroke:#FFF880;stroke-width:2;}
	.st6{fill:none;stroke:#772A2A;stroke-width:2;}
	.st7{fill:none;stroke:#D7292D;stroke-width:2;}
	.st8{fill:none;stroke:#742A2B;stroke-width:2;}
	.st9{fill:none;stroke:#E2931B;stroke-width:2;}
	.st10{fill:none;stroke:#871E22;stroke-width:2;}
	.st11{fill:none;stroke:#928810;stroke-width:2;}
	.st12{fill:none;stroke:#F58712;stroke-width:2;}
	.st13{fill:none;stroke:#95880F;stroke-width:2;}
	.st14{fill:none;stroke:#8A1E21;stroke-width:2;}
	.st15{fill:#2A1F1D;}
	.st16{fill:#C43536;}
	.st17{fill:#EA1D24;}
	.st18{fill:#FFF100;}
	.st19{fill:#241F20;}
	.st20{fill:#3F4191;}
	.st21{fill:#D4363A;}
</style>
<path class="st0" d="M542.3,827.2H67.4C30.2,827.2,0,797.1,0,759.8V67.4C0,30.2,30.2,0,67.4,0h474.9c37.2,0,67.4,30.2,67.4,67.4
	v692.4C609.7,797.1,579.5,827.2,542.3,827.2z"/>
<g>
	<g>
		<g>
			<path vector-effect="non-scaling-stroke" class="st1" d="M423.3,612.4l17.8-10"/>
			<path vector-effect="non-scaling-stroke" class="st2" d="M441.2,602.4l49.6,0.2c0.3,0,0.5-0.2,0.5-0.5l-0.1-20.5"/>
			<path vector-effect="non-scaling-stroke" class="st1" d="M491.2,581.7c15-5,30.2-9.7,45.6-14c0.2-0.1,0.3-0.2,0.4-0.3
				c0.2-0.2,0.2-0.4,0-0.6c-0.1-0.2-0.3-0.2-0.5-0.2c-39,10.8-78.6,22.5-113.9,44.5c-0.5,0.3-1,0.3-1.5,0.2"/>
			<path vector-effect="non-scaling-stroke" class="st3" d="M421.4,611.4l-4.6-2.5c-0.1,0-0.1,0-0.2,0c0,0.1,0,0.1,0,0.2
				C418,610.3,419.6,611,421.4,611.4"/>
			<path vector-effect="non-scaling-stroke" class="st1" d="M421.4,611.4l1.1,1"/>
			<path vector-effect="non-scaling-stroke" class="st4" d="M137.4,104.5l-7.4,0.6"/>
			<path vector-effect="non-scaling-stroke" class="st2" d="M130.1,105.2l-58-0.2c-0.3,0-0.5,0.2-0.5,0.5v496.8
				c0,0.3,0.2,0.5,0.5,0.5l58.5-0.3"/>
			<path vector-effect="non-scaling-stroke" class="st4" d="M130.6,602.4l11.4,0.1"/>
			<path vector-effect="non-scaling-stroke" class="st1" d="M142,602.5c4.8,0.8,9.5,0.9,14.2,0.2"/>
			<path vector-effect="non-scaling-stroke" class="st4" d="M156.2,602.7l26.7,0"/>
			<path vector-effect="non-scaling-stroke" class="st2" d="M182.9,602.7l215.2,0"/>
			<path vector-effect="non-scaling-stroke" class="st3" d="M398.1,602.7c0.3,0.7,0.9,0.7,1.9-0.1"/>
			<path vector-effect="non-scaling-stroke" class="st2" d="M400,602.6c7.4,0.1,14.6,0.1,21.9,0.1c4.6,0,13.4-5.7,17.8-8"/>
			<path vector-effect="non-scaling-stroke" class="st5" d="M439.7,594.7c3-1.5,6-2.9,9.1-4.2c2.8-1.3,7.7-2.8,11.9-4.9
				c3.3-1.7,10.9-4.7,22.8-9"/>
			<path vector-effect="non-scaling-stroke" class="st2" d="M483.5,576.5l7.2-2.8c0.3-0.1,0.5-0.4,0.5-0.8l-0.1-8.4"/>
			<path vector-effect="non-scaling-stroke" class="st3" d="M491.2,564.6l7.2-1.8c0.4-0.1,0.4-0.3,0.1-0.5l-7.8-6.6"/>
			<path vector-effect="non-scaling-stroke" class="st2" d="M490.7,555.7c0.4-0.6,0.7-1.1,0.7-1.3c0-6.3,0-12.6,0-19
				c0-0.3-0.1-0.6-0.3-0.9l-7.5-9.4"/>
			<path vector-effect="non-scaling-stroke" class="st5" d="M483.5,525.1c-1.2-1-2.3-2.4-3.3-4.3c-1.8-3.2-4.7-6.2-6.4-8.6
				c-8.4-11.9-17.4-23.5-26-35.3c-1.4-1.9-3.7-4.4-5.2-6.7c-1.9-3-3.1-4.8-3.4-5.3c-8.7-11.8-17.2-23.6-25.8-35.5
				c-0.5-0.7-1.3-1.6-2.5-2.7c-3-3-5.2-7.5-7.7-11c-2.1-3.1-5.5-5.7-7.9-9c-2.8-4-5.7-8.4-9.5-11.6c-2.2-1.8-3-4.9-4.3-6.7
				c-2.9-4.1-5.3-8.5-8.6-12.3c-1.1-1.2-2-2.6-2.8-4.1c-0.8-1.5-2-2.7-2.7-4.3c-0.7-1.7-1.3-2.8-1.7-3.4c-2.9-4.1-5.3-7.8-7.6-12.7
				c-1.8-3.9-3.9-7.6-6.2-11.2c-0.1-0.2-0.2-0.4-0.2-0.6c-0.3-2.4-3.5-6.2-5.1-8.5c-0.5-0.7-0.1-1.6,0.6-1.8
				c11.9-3.6,23.5-8,34.9-13.2c2.2-1,5.3-2.9,9.1-5.5c1.6-1.1,3.6-1.8,5.3-3.1c1.9-1.4,3.1-2.3,3.7-2.7c4.8-2.9,8.8-6.7,12-11.4
				c0.2-0.3,0.5-0.4,0.8-0.5c0.4,0,0.7-0.2,0.9-0.5c3.4-4.2,6.4-8.7,8.9-13.5c0.7-1.4,0.6-3.1,1.5-4.6c1.6-2.9,2-4.3,2.1-7.2
				c0-0.2,0.1-0.4,0.3-0.6c0.1-0.1,0.2-0.1,0.3-0.2c0.2-0.2,0.3-0.4,0.4-0.7l0.9-10.5c0-0.2,0.1-0.4,0.2-0.5l0.6-0.6
				c0.1-0.1,0.2-0.3,0.2-0.4c-0.2-6.2,0.4-12.8-0.9-18.7c-0.9-4-1.9-7.9-3.2-11.8c-1.1-3.5-2.8-6.9-4.9-10.2
				c-2.7-4.2-5.6-8.3-8.7-12.3c-0.2-0.2-0.1-0.5,0.1-0.7c0.2-0.2,0.5-0.2,0.7,0c3.1,2.8,5.9,6.1,8.4,9.7"/>
			<path vector-effect="non-scaling-stroke" class="st1" d="M420.9,209.9c6.2,8.5,10.1,17.3,11.7,26.3c9.5,51.7-30.2,85.1-75,98.2
				c-0.4,0.1-0.6,0.6-0.4,1c6.2,12.8,13.3,25.1,21.2,37.1"/>
			<path vector-effect="non-scaling-stroke" class="st5" d="M378.3,372.4c9.2,14,18.9,26.7,29,38.3c6.5,7.5,13.4,14.7,19.4,22.6
				c17.9,23.5,35.7,47.1,53.5,70.8c1.1,1.4,2,4.3,4.4,4.9"/>
			<path vector-effect="non-scaling-stroke" class="st2" d="M484.7,509l6.1,7.7c0.2,0.2,0.6,0.1,0.6-0.2v-411c0-0.3-0.2-0.5-0.5-0.5
				l-317.2,0"/>
			<path vector-effect="non-scaling-stroke" class="st4" d="M173.6,105l-10.7-0.2"/>
			<path vector-effect="non-scaling-stroke" class="st1" d="M162.9,104.7c-8.3-3.3-16.8-3.3-25.5-0.2"/>
			<path vector-effect="non-scaling-stroke" class="st6" d="M162.9,104.7c9.8,4.4,16.7,11.4,20.5,21c10.9,26.9-9.5,46.6-28.7,61.1
				c-26.2,19.8-61,44.1-58.3,81.2c0.8,11.7,3.7,23.7,8.5,36.1c3.9,10,8.7,16.2,14.9,23.7c2.7,3.3,4.3,5.8,4.7,7.5
				c1.6,7-6.3,12.7-10.8,17c-0.2,0.2-0.2,0.6,0.1,0.8c4.5,3.5,12.2,9.9,11.1,16.1c-0.3,1.8-0.7,3-1.2,3.6
				c-9.6,11.5-15.6,19.3-19.7,30.8c-8.4,23.5-12.3,48.6,3,70.7c16.4,23.8,40.8,36.9,63.1,57.7c8.6,8,15.8,18,16.5,29.8
				c1.2,19.4-11,36.4-30.3,40.9"/>
			<path vector-effect="non-scaling-stroke" class="st6" d="M142,602.5c-9-3.9-17.2-7.5-16.8-18.6c0.2-6.6,4.5-12.5,9.3-16.9
				c0.3-0.3,0.6-0.2,0.8,0l4.1,4.6c0.3,0.3,0.3,0.6,0,0.9c-4.8,4.6-10.4,11.1-5.1,17.3c7.2,8.6,23.4,6.6,31.4,1
				c4.8-3.3,8.5-8.1,11.2-14.5c8-18.9-5.1-34.5-19.2-45.7c-10.8-8.7-21.6-17.4-32.4-26.1c-22.8-18.5-38.9-41-35.7-71.7
				c1.8-16.8,6.9-33.9,15.9-48.6c3-4.9,7.4-9.4,11.2-14.1c1.2-1.5,1.2-2.9,0-4.2c-3.3-3.6-6.9-6.8-10.8-9.8
				c-0.3-0.2-0.4-0.6-0.2-0.9l0.8-2c0.1-0.2,0.1-0.5,0-0.7l-0.9-2.6c-0.1-0.4,0-0.6,0.3-0.9c3.8-2.9,14.2-10.5,10.8-14.1
				c-15.9-17-21.8-32.7-26.1-55.7c-5.6-30,5.8-52.7,27.7-72.4c9.8-8.8,19.9-17.2,30.4-25.1c15.5-11.8,36.3-28.2,29-50.4
				c-2.9-8.8-8.4-16-16.9-19.5c-7.7-3.2-19.3-3.3-25.9,3.1c-6,5.8-0.3,13.8,4.6,17.8c0.3,0.2,0.3,0.6,0.1,0.8l-4.2,4.6
				c-0.3,0.3-0.7,0.3-1,0c-12-10.9-13.6-26.4,3.1-33.9"/>
			<path vector-effect="non-scaling-stroke" class="st7" d="M173.6,105c-1.1,0.8-1.5,1.8-1,3c0.1,0.3,0.3,0.5,0.6,0.7
				c5.8,4.2,10,9.6,12.5,16.3c0.7,1.9,2.4,5,2.4,7.1c0.1,3.6,0.2,7.1,0.3,10.7c0.2,8.4-3.8,15.7-8.4,22.3c-1.8,2.7-4.9,4.6-6.8,7.8
				c-0.4,0.6,0.1,1.4,0.8,1.3c0.8-0.1,1.9-0.4,2.5-1c5.3-5.3,10.7-6.7,16.9-10.2c4.1-2.4,7.9-3.1,11.9-4.6c2.7-1,6.2-1.6,9.2-3
				c1.4-0.7,2.9-0.4,4.4-1.1c2.8-1.4,5.8-1.8,8.9-1.3c0.3,0.1,0.4,0.2,0.4,0.5l-0.3,1"/>
			<path vector-effect="non-scaling-stroke" class="st8" d="M227.9,154.7c-21.2,4.1-41.9,12.3-59,25.8c-0.3,0.2-0.3,0.5,0,0.7
				l19.3,16.8c0.7,0.6,1.1,1.5,1.1,2.5l0,122.9c0,0.6-0.4,1.1-1,1.1c-10.2,0.9-20.5,1.1-30.9,0.7c-0.9,0-1.7,0.1-2.5,0.4
				c-0.3,0.1-0.5,0.3-0.7,0.6l-12,26.4c-0.2,0.4,0.2,0.9,0.6,0.8c14.9-3.7,31-6.9,46-6.2c0.3,0,0.5,0.2,0.5,0.5l0.2,10
				c0,0.5-0.2,0.8-0.8,0.9c-11.8,1.5-23,4.8-33.7,9.9c-0.7,0.4-0.9,1.3-0.4,1.9l2.5,2.8c0.2,0.3,0.6,0.4,0.9,0.2
				c9.4-4,19.2-6.5,29.4-7.3c1.3-0.1,2,0.5,2,1.8v83.3c0,0.3-0.1,0.7-0.4,0.9c-0.8,0.9-1.9,1.9-3.2,3c-8.6,7-18.1,14.7-28.5,23.1
				c-1,0.8-0.8,1.2,0.4,1.2c22.5,0,45.4,0,68.6-0.1c1.6,0,3.2,0.2,4.8,0.5"/>
			<path vector-effect="non-scaling-stroke" class="st9" d="M231.1,479.8l-0.1,2.4"/>
			<path vector-effect="non-scaling-stroke" class="st7" d="M231.1,482.2c-0.3-0.7-0.9-1.2-1.8-1.1c-19.4,0.6-38.7,0.8-58.1,0.6
				c-2.1,0-5.3,0.6-8.1,0c-2.9-0.6-5.9-0.1-8.6-1.3c-0.5-0.2-0.6-0.5-0.2-0.9c5.4-5.9,11.3-11.2,17.7-16c4.7-3.5,8.3-8.1,13.4-11.5
				c0.3-0.2,0.5-0.4,0.6-0.7c1.9-5.7,1.3-13.2,1.1-20.4c-0.1-5,0.4-12-0.1-18c-0.2-2.6,0.3-5.1,0.2-7.8c-0.4-11.9-0.1-23.8-0.4-35.5
				c0-0.9-0.8-1.6-1.7-1.4c-2.8,0.5-5.8,1-8.9,1.5c-1.2,0.2-2.8,0-4.3,0.8c-3.6,2-12,5.5-15.2,4.7c-2.2-0.5-3.2-3.8-3.6-5.7
				c-0.1-0.3,0-0.7,0.2-1c1.7-2.5,12.6-7,15.2-7.6c6.1-1.5,12.2-2.7,18.4-3.6c0.3,0,0.5-0.2,0.4-0.6c-0.2-1.6-0.1-3.2,0.1-4.8
				c0.3-1.8,0-3.3-2.2-2.9c-0.3,0.1-0.6,0.2-0.8,0.4c-0.1,0.2-0.3,0.3-0.6,0.3l-10.5,0.8c-0.3,0-0.6,0-0.8-0.1
				c-3.1-0.9-5.8,0.7-8.8,1.5c-0.8,0.2-2,0.3-3.8,0.2c-2.8-0.1-5.5,1.4-7.4,1.8c-3.1,0.7-6.5,1.2-10.4,1.5c-0.8,0.1-1.5-0.8-1.2-1.6
				c0.1-0.4,0.1-0.7-0.2-1c-0.2-0.3-0.3-0.6-0.3-1c0.1-0.6,0.4-1.1,0.8-1.5c0.3-0.2,0.5-0.5,0.6-0.9c2.6-8.9,7.1-16.6,10.2-25.1
				c0.1-0.4,0.5-0.7,1-0.7l27.4-0.7c0.4,0,0.7-0.1,1-0.4c1.3-1,2.6-1.3,4.1-0.7c0.8,0.3,1.7-0.2,1.8-1c0.5-3.4-0.1-6.7-0.2-9.2
				c-0.3-9.3-0.4-18.6-0.4-28c0-1.6,0.4-3.5,0.3-4.9c-0.4-7.4-0.1-15-0.2-22.4c0-4.9,0.3-10.7-0.2-16.2c0-0.3,0-0.6,0.2-0.9
				c0.1-0.3,0.2-0.6,0.1-0.9c-0.6-3.4,0.1-7.3,0.1-9.8c0-2.4,0.1-4.7,0.1-7.1c0,0,0-0.1,0-0.1c-0.1-0.1-0.2-0.1-0.2-0.2
				c-0.2-0.2-0.3-0.4-0.2-0.7c0.9-6.8-0.2-13.1,0-19.8c0-0.4-0.1-0.7-0.4-0.9l-20.4-18.1c-0.7-0.6-1.8-0.6-2.4,0.2
				c-1.2,1.5-2.7,2.9-4.5,4.3c-5.8,4.4-11.7,9.7-16.9,13.7c-11.7,9-24.1,18.5-32.2,31c-4.6,7.1-9.3,14.3-10.4,22.9
				c-0.3,2.5-2,3.6-1.8,6.5c0.2,4.2,0.4,7.1,0.6,8.7c0,0.2,0.2,0.5,0.4,0.7c0.2,0.2,0.4,0.5,0.5,0.8c1.2,4.1,1.1,7.9,1.9,12
				c0.6,2.9,0.4,5.2,1.4,8c2.6,7.2,3.9,14,8.4,21.2c1.4,2.3,3.4,5.1,5.8,8.4c3.1,4,7.6,9,9.2,13.1c3.3,8.5-2.1,13.8-8.4,18.6
				c-0.9,0.7-0.7,2,0.3,2.5c4.6,2.2,10,8,9.3,13.6c-0.3,2.7-0.2,4.6-1.7,6.9c-2.2,3.5-4.8,6.8-7.7,9.8c-2.1,2.2-3.7,4.1-4.7,5.8
				c-5.8,9.8-9.8,20.3-12,31.5c-0.3,1.4-0.1,3-0.4,4.5c-1.5,5.4-2.9,14.2-1.3,19.6c0.4,1.4,0.5,2.8,0.2,4.3c0,0.3,0,0.6,0.3,0.8
				c1.4,1.2,0.9,2.6,1.2,3.9c0.5,2.1,0.8,4.3,1,6.6c0,0.3,0.2,0.6,0.5,0.8c1.2,0.9,1.9,2,2.2,3.4c0.1,0.3,0.2,0.6,0.5,0.7
				c0.7,0.3,1.1,0.8,1.3,1.5c2,7.5,7.5,13.4,12.6,18.6c0.1,0.1,0.2,0.2,0.4,0.2h0.4c0.3,0,0.6,0.1,0.8,0.4
				c5.8,6.6,14.3,12.8,19.4,17.1c5.4,4.5,11.8,7.9,16.8,12.8c13.1,12.8,31.7,25.1,31.8,45.9c0.1,14.9-5.5,27.4-17.9,36
				c-1,0.7-0.8,2.1,0.3,2.5c4.1,1.4,7.4,1,11.7,1.7"/>
			<path vector-effect="non-scaling-stroke" class="st7" d="M130.6,602.4c1-0.6,1.4-1.5,1.2-2.6c-0.1-0.3-0.2-0.5-0.6-0.7
				c-4.6-1.7-7.4-7.6-8.2-12c-1.4-8.2,4.1-16.7,10.3-21.9c0.2-0.2,0.5-0.3,0.8-0.3c3.4,0,5.3,3.5,7.2,5.8c0.2,0.3,0.3,0.6,0.3,0.9
				c-0.2,2.5-0.9,3.4-3,5.1c-9.7,7.9,0.2,15.9,8.6,16.4c4.5,0.3,7.4,0.2,8.9-0.3c10.4-3.5,18.8-11.9,20.8-22.8
				c0.3-1.8,1.4-4.1,1-6.6c-2.6-14.8-11-20.2-21.2-30.7c-3.4-3.4-7.3-6.1-11-9.1c-1.8-1.5-4.3-2.7-6.3-4.5
				c-5.7-5.2-11.8-10-17.7-14.9C106.8,491.9,93,475.6,89,456.9c-0.9-4-1.4-9.3-1.7-16c-0.2-5.8,1.2-11.5,1.8-17.5
				c0.6-5,2.6-12.7,6-23.2c0.9-2.8,2.1-5.4,3.6-8c0.2-0.3,0.2-0.6,0.2-0.9c-0.2-2,0.1-3.5,0.9-4.5c5-6.1,10-12.2,15-18.2
				c0.3-0.4,0.3-1-0.1-1.4c-3.2-3.3-11.9-8.8-10.7-14c0.1-0.3,0-0.6-0.1-0.9c-0.9-1.8-0.7-3.3,0.7-4.6c3.2-3.1,6.5-6,9.7-8.8
				c1.2-1,1.2-2.1,0.1-3.2c-4-3.8-7.6-8-10.9-12.6c-5.5-7.7-8.6-17.4-11.5-26.6c-0.4-1.2-0.9-3.8-1.5-7.6c-3-18.8-4.9-30.7,0.7-47.2
				c2-6.1,5.9-14.8,10.8-20.4c4.6-5.3,9-10.6,14.1-15.3c8.1-7.4,16.4-14.4,25-21.1c3-2.3,5.1-6.3,9.8-8.3c3.8-1.7,6.9-5.1,10.6-8.1
				c6-4.9,15-15.1,15.5-24.1c0-0.3-0.1-0.4-0.3-0.6c-0.2-0.1-0.3-0.3-0.2-0.7c1.6-11.8-6.1-25.6-17.6-29.6c-3.7-1.3-8.2-1-12.2-1
				c-5,0-17.6,5.9-10.5,12.9c2.4,2.3,4.3,4.7,5.7,7.2c0.2,0.3,0.2,0.6,0,0.9c-1.3,2.5-5.4,8.6-8.9,5.7c-9.6-7.9-15.4-22.2-3.8-31.4
				c0.7-0.5,1-1.5,1-2.8"/>
			<path vector-effect="non-scaling-stroke" class="st10" d="M483.2,548.3c2,2.8,4.5,5.3,7.5,7.4"/>
			<path vector-effect="non-scaling-stroke" class="st10" d="M491.2,564.6l-7.7,2.3"/>
			<path vector-effect="non-scaling-stroke" class="st11" d="M483.4,566.9c-23.7,7.7-46.8,17-69.2,27.9"/>
			<path vector-effect="non-scaling-stroke" class="st10" d="M414.3,594.8c-5.1,1.9-9.8,4.5-14.2,7.8"/>
			<path vector-effect="non-scaling-stroke" class="st10" d="M398.1,602.7l-1-8"/>
			<path vector-effect="non-scaling-stroke" class="st11" d="M397.1,594.7c-9.3-38.1-21-75.9-35.3-112.7c-11.7-30.1-23-60.3-34-90.6
				c-4.3-11.9-12.9-23.9-19.3-34.7c-1.1-1.8-1.9-4.3-3-6.4c-0.2-0.3-0.4-0.4-0.8-0.3c-15.7,6.8-32.5,8.4-49.5,8.6
				c-0.4,0-0.7,0.3-0.7,0.7v88.8c0,0.3,0.1,0.6,0.4,0.9l43.1,47.4c0.6,0.7,0.5,1-0.4,1h-66.3c-0.1,0-0.2,0.1-0.3,0.1
				c-0.2,0.2-0.2,0.2-0.2,0"/>
			<path vector-effect="non-scaling-stroke" class="st10" d="M230.8,497.6l-56.9-0.1c-0.4,0-0.7-0.1-1-0.4l-5-5.7
				c-0.6-0.6-0.4-1,0.4-1c20.6,0,41.3,0,61.9,0c0.1-0.2,0.3-0.3,0.6-0.3"/>
			<path vector-effect="non-scaling-stroke" class="st11" d="M230.9,490.1l53.6,0.3c0.2,0,0.4-0.3,0.2-0.5L250,453.8
				c-0.9-0.9-1.4-2.1-1.4-3.4v-97c0-0.4,0.2-0.6,0.6-0.6c18-1.3,36.4-2.2,53.6-8.1c0.3-0.1,0.5-0.5,0.3-0.8l-5.2-10
				c-0.2-0.3-0.5-0.5-0.9-0.4c-19.4,4.7-39.6,7-59.5,8.8c-0.4,0-0.6,0.2-0.6,0.7v108.5c0,0.5,0.2,0.9,0.5,1.2l30.6,26.9
				c0.1,0.1,0,0.3-0.1,0.3l-36.8,0"/>
			<path vector-effect="non-scaling-stroke" class="st12" d="M484.7,509l-1.1-2c-0.2-0.3-0.2-0.6-0.2-0.9V113.4
				c0-0.3-0.2-0.5-0.5-0.5H231.6c-0.3,0-0.5,0.2-0.5,0.5v40.3"/>
			<path vector-effect="non-scaling-stroke" class="st10" d="M231.1,153.8l-3.2,0.9"/>
			<path vector-effect="non-scaling-stroke" class="st12" d="M231.1,482.2l-0.1,7.9"/>
			<path vector-effect="non-scaling-stroke" class="st12" d="M230.8,497.6l0.3,96.6c0,0.4,0.2,0.5,0.5,0.5h165.4"/>
			<path vector-effect="non-scaling-stroke" class="st12" d="M439.7,594.7l-25.5,0"/>
			<path vector-effect="non-scaling-stroke" class="st13" d="M378.3,372.4c0.6-0.5,0.9-0.8,0.6-1.1c-2.8-3.5-4.4-7.5-6.9-11
				c-5.3-7.4-9.2-16.5-13.8-24.6c-0.2-0.3-0.1-0.5,0.3-0.6c44.8-12.2,85.3-47.6,74.7-98.7c-2.2-10.4-6.3-19.3-12.4-26.6"/>
			<path vector-effect="non-scaling-stroke" class="st12" d="M483.5,525.1l-0.3,23.2"/>
			<path vector-effect="non-scaling-stroke" class="st11" d="M483.2,548.3c-11-12.7-20.8-25-29.3-36.7c-20-27.4-40.2-56.4-60.8-87.1
				c-21.7-32.3-47.5-62.9-63.7-98.5c-0.1-0.3,0-0.7,0.4-0.8c36.1-9.8,81.2-32.2,82.6-75.8c1.2-37.8-16.3-62.4-48.4-78.7
				c-40.9-20.8-88-24.5-132.9-16.9"/>
			<path vector-effect="non-scaling-stroke" class="st12" d="M483.5,576.5l-0.1-9.6"/>
			<path vector-effect="non-scaling-stroke" class="st11" d="M345.6,213.7c-12.2-6.7-25.1-10.6-38.7-11.8
				c-15.8-1.4-34.9-0.6-51.8,0.5c-0.3,0-0.5,0.2-0.5,0.5v116.5c0,0.3,0.2,0.5,0.5,0.5c16.7-1.7,33-5.2,48.8-10.5
				c32.3-10.8,57.1-32.3,54.8-69.5c-3.4-55.3-63.7-67.9-107.6-59.2c-4.9,1-9.5,2.5-13.9,4.7c-0.2,0.1-0.3,0.3-0.3,0.5l0,134.4
				c0,0.4,0.2,0.6,0.6,0.6l10.6-0.7c0.4,0,0.5-0.2,0.5-0.6l0-122.2c0-0.5,0.2-0.8,0.8-0.8c14.2-1.2,28.5-1.6,43.1-1.2
				c18.6,0.5,39.5,5,53.3,18C346.3,213.9,346.2,214,345.6,213.7"/>
			<path vector-effect="non-scaling-stroke" class="st14" d="M491.2,581.7l-7.7,2.8"/>
			<path vector-effect="non-scaling-stroke" class="st13" d="M483.5,584.4c-9.2,2.9-18.2,6.5-26.9,10.6"/>
			<path vector-effect="non-scaling-stroke" class="st14" d="M456.6,595c-5.4,1.6-10.5,4.1-15.4,7.4"/>
			<path vector-effect="non-scaling-stroke" class="st12" d="M456.6,595l26.2-0.3c0.4,0,0.5-0.2,0.6-0.6l0.2-9.8"/>
		</g>
		<path class="st0" d="M71.4,101.4h467v511h-115l17.8-10l49.6,0.2c0.3,0,0.5-0.2,0.5-0.5l-0.1-20.5c15-5,30.2-9.7,45.6-14
			c0.2-0.1,0.3-0.2,0.4-0.3c0.2-0.2,0.2-0.4,0-0.6c-0.1-0.2-0.3-0.2-0.5-0.2c-39,10.8-78.6,22.5-113.9,44.5c-0.5,0.3-1,0.3-1.5,0.2
			l-4.6-2.5c-0.1,0-0.1,0-0.2,0c0,0.1,0,0.1,0,0.2c1.4,1.2,3,1.9,4.8,2.3l1.1,1H71.4V101.4z M137.4,104.5l-7.4,0.6l-58-0.2
			c-0.3,0-0.5,0.2-0.5,0.5v496.8c0,0.3,0.2,0.5,0.5,0.5l58.5-0.3l11.4,0.1c4.8,0.8,9.5,0.9,14.2,0.2l26.7,0l215.2,0
			c0.3,0.7,0.9,0.7,1.9-0.1c7.4,0.1,14.6,0.1,21.9,0.1c4.6,0,13.4-5.7,17.8-8c3-1.5,6-2.9,9.1-4.2c2.8-1.3,7.7-2.8,11.9-4.9
			c3.3-1.7,10.9-4.7,22.8-9l7.2-2.8c0.3-0.1,0.5-0.4,0.5-0.8l-0.1-8.4l7.2-1.8c0.4-0.1,0.4-0.3,0.1-0.5l-7.8-6.6
			c0.4-0.6,0.7-1.1,0.7-1.3c0-6.3,0-12.6,0-19c0-0.3-0.1-0.6-0.3-0.9l-7.5-9.4c-1.2-1-2.3-2.4-3.3-4.3c-1.8-3.2-4.7-6.2-6.4-8.6
			c-8.4-11.9-17.4-23.5-26-35.3c-1.4-1.9-3.7-4.4-5.2-6.7c-1.9-3-3.1-4.8-3.4-5.3c-8.7-11.8-17.2-23.6-25.8-35.5
			c-0.5-0.7-1.3-1.6-2.5-2.7c-3-3-5.2-7.5-7.7-11c-2.1-3.1-5.5-5.7-7.9-9c-2.8-4-5.7-8.4-9.5-11.6c-2.2-1.8-3-4.9-4.3-6.7
			c-2.9-4.1-5.3-8.5-8.6-12.3c-1.1-1.2-2-2.6-2.8-4.1c-0.8-1.5-2-2.7-2.7-4.3c-0.7-1.7-1.3-2.8-1.7-3.4c-2.9-4.1-5.3-7.8-7.6-12.7
			c-1.8-3.9-3.9-7.6-6.2-11.2c-0.1-0.2-0.2-0.4-0.2-0.6c-0.3-2.4-3.5-6.2-5.1-8.5c-0.5-0.7-0.1-1.6,0.6-1.8
			c11.9-3.6,23.5-8,34.9-13.2c2.2-1,5.3-2.9,9.1-5.5c1.6-1.1,3.6-1.8,5.3-3.1c1.9-1.4,3.1-2.3,3.7-2.7c4.8-2.9,8.8-6.7,12-11.4
			c0.2-0.3,0.5-0.4,0.8-0.5c0.4,0,0.7-0.2,0.9-0.5c3.4-4.2,6.4-8.7,8.9-13.5c0.7-1.4,0.6-3.1,1.5-4.6c1.6-2.9,2-4.3,2.1-7.2
			c0-0.2,0.1-0.4,0.3-0.6c0.1-0.1,0.2-0.1,0.3-0.2c0.2-0.2,0.3-0.4,0.4-0.7l0.9-10.5c0-0.2,0.1-0.4,0.2-0.5l0.6-0.6
			c0.1-0.1,0.2-0.3,0.2-0.4c-0.2-6.2,0.4-12.8-0.9-18.7c-0.9-4-1.9-7.9-3.2-11.8c-1.1-3.5-2.8-6.9-4.9-10.2
			c-2.7-4.2-5.6-8.3-8.7-12.3c-0.2-0.2-0.1-0.5,0.1-0.7c0.2-0.2,0.5-0.2,0.7,0c3.1,2.8,5.9,6.1,8.4,9.7c6.2,8.5,10.1,17.3,11.7,26.3
			c9.5,51.7-30.2,85.1-75,98.2c-0.4,0.1-0.6,0.6-0.4,1c6.2,12.8,13.3,25.1,21.2,37.1c9.2,14,18.9,26.7,29,38.3
			c6.5,7.5,13.4,14.7,19.4,22.6c17.9,23.5,35.7,47.1,53.5,70.8c1.1,1.4,2,4.3,4.4,4.9l6.1,7.7c0.2,0.2,0.6,0.1,0.6-0.2v-411
			c0-0.3-0.2-0.5-0.5-0.5l-317.2,0l-10.7-0.2C154.6,101.5,146.1,101.4,137.4,104.5z"/>
		<path class="st15" d="M162.9,104.7c9.8,4.4,16.7,11.4,20.5,21c10.9,26.9-9.5,46.6-28.7,61.1c-26.2,19.8-61,44.1-58.3,81.2
			c0.8,11.7,3.7,23.7,8.5,36.1c3.9,10,8.7,16.2,14.9,23.7c2.7,3.3,4.3,5.8,4.7,7.5c1.6,7-6.3,12.7-10.8,17c-0.2,0.2-0.2,0.6,0.1,0.8
			c4.5,3.5,12.2,9.9,11.1,16.1c-0.3,1.8-0.7,3-1.2,3.6c-9.6,11.5-15.6,19.3-19.7,30.8c-8.4,23.5-12.3,48.6,3,70.7
			c16.4,23.8,40.8,36.9,63.1,57.7c8.6,8,15.8,18,16.5,29.8c1.2,19.4-11,36.4-30.3,40.9c-4.7,0.7-9.4,0.6-14.2-0.2
			c-9-3.9-17.2-7.5-16.8-18.6c0.2-6.6,4.5-12.5,9.3-16.9c0.3-0.3,0.6-0.2,0.8,0l4.1,4.6c0.3,0.3,0.3,0.6,0,0.9
			c-4.8,4.6-10.4,11.1-5.1,17.3c7.2,8.6,23.4,6.6,31.4,1c4.8-3.3,8.5-8.1,11.2-14.5c8-18.9-5.1-34.5-19.2-45.7
			c-10.8-8.7-21.6-17.4-32.4-26.1c-22.8-18.5-38.9-41-35.7-71.7c1.8-16.8,6.9-33.9,15.9-48.6c3-4.9,7.4-9.4,11.2-14.1
			c1.2-1.5,1.2-2.9,0-4.2c-3.3-3.6-6.9-6.8-10.8-9.8c-0.3-0.2-0.4-0.6-0.2-0.9l0.8-2c0.1-0.2,0.1-0.5,0-0.7l-0.9-2.6
			c-0.1-0.4,0-0.6,0.3-0.9c3.8-2.9,14.2-10.5,10.8-14.1c-15.9-17-21.8-32.7-26.1-55.7c-5.6-30,5.8-52.7,27.7-72.4
			c9.8-8.8,19.9-17.2,30.4-25.1c15.5-11.8,36.3-28.2,29-50.4c-2.9-8.8-8.4-16-16.9-19.5c-7.7-3.2-19.3-3.3-25.9,3.1
			c-6,5.8-0.3,13.8,4.6,17.8c0.3,0.2,0.3,0.6,0.1,0.8l-4.2,4.6c-0.3,0.3-0.7,0.3-1,0c-12-10.9-13.6-26.4,3.1-33.9
			C146.1,101.4,154.6,101.5,162.9,104.7z"/>
		<path class="st16" d="M137.4,104.5c-16.8,7.5-15.1,23.1-3.1,33.9c0.3,0.3,0.7,0.2,1,0l4.2-4.6c0.2-0.2,0.2-0.6-0.1-0.8
			c-4.9-4-10.6-12-4.6-17.8c6.6-6.4,18.2-6.3,25.9-3.1c8.6,3.6,14,10.8,16.9,19.5c7.3,22.2-13.4,38.6-29,50.4
			c-10.5,7.9-20.6,16.3-30.4,25.1c-21.9,19.7-33.2,42.4-27.7,72.4c4.2,23,10.2,38.7,26.1,55.7c3.4,3.6-7,11.2-10.8,14.1
			c-0.3,0.2-0.4,0.5-0.3,0.9l0.9,2.6c0.1,0.2,0.1,0.5,0,0.7l-0.8,2c-0.1,0.3,0,0.7,0.2,0.9c3.9,3,7.5,6.2,10.8,9.8
			c1.2,1.3,1.2,2.7,0,4.2c-3.8,4.7-8.2,9.2-11.2,14.1c-9,14.6-14.1,31.8-15.9,48.6c-3.2,30.7,12.9,53.2,35.7,71.7
			c10.8,8.7,21.6,17.4,32.4,26.1c14.1,11.2,27.2,26.9,19.2,45.7c-2.7,6.3-6.4,11.1-11.2,14.5c-7.9,5.6-24.1,7.5-31.4-1
			c-5.2-6.2,0.3-12.7,5.1-17.3c0.3-0.3,0.3-0.6,0-0.9l-4.1-4.6c-0.3-0.3-0.5-0.3-0.8,0c-4.8,4.4-9.1,10.3-9.3,16.9
			c-0.4,11.2,7.8,14.8,16.8,18.6l-11.4-0.1c1-0.6,1.4-1.5,1.2-2.6c-0.1-0.3-0.2-0.5-0.6-0.7c-4.6-1.7-7.4-7.6-8.2-12
			c-1.4-8.2,4.1-16.7,10.3-21.9c0.2-0.2,0.5-0.3,0.8-0.3c3.4,0,5.3,3.5,7.2,5.8c0.2,0.3,0.3,0.6,0.3,0.9c-0.2,2.5-0.9,3.4-3,5.1
			c-9.7,7.9,0.2,15.9,8.6,16.4c4.5,0.3,7.4,0.2,8.9-0.3c10.4-3.5,18.8-11.9,20.8-22.8c0.3-1.8,1.4-4.1,1-6.6
			c-2.6-14.8-11-20.2-21.2-30.7c-3.4-3.4-7.3-6.1-11-9.1c-1.8-1.5-4.3-2.7-6.3-4.5c-5.7-5.2-11.8-10-17.7-14.9
			C106.8,491.9,93,475.6,89,456.9c-0.9-4-1.4-9.3-1.7-16c-0.2-5.8,1.2-11.5,1.8-17.5c0.6-5,2.6-12.7,6-23.2c0.9-2.8,2.1-5.4,3.6-8
			c0.2-0.3,0.2-0.6,0.2-0.9c-0.2-2,0.1-3.5,0.9-4.5c5-6.1,10-12.2,15-18.2c0.3-0.4,0.3-1-0.1-1.4c-3.2-3.3-11.9-8.8-10.7-14
			c0.1-0.3,0-0.6-0.1-0.9c-0.9-1.8-0.7-3.3,0.7-4.6c3.2-3.1,6.5-6,9.7-8.8c1.2-1,1.2-2.1,0.1-3.2c-4-3.8-7.6-8-10.9-12.6
			c-5.5-7.7-8.6-17.4-11.5-26.6c-0.4-1.2-0.9-3.8-1.5-7.6c-3-18.8-4.9-30.7,0.7-47.2c2-6.1,5.9-14.8,10.8-20.4
			c4.6-5.3,9-10.6,14.1-15.3c8.1-7.4,16.4-14.4,25-21.1c3-2.3,5.1-6.3,9.8-8.3c3.8-1.7,6.9-5.1,10.6-8.1c6-4.9,15-15.1,15.5-24.1
			c0-0.3-0.1-0.4-0.3-0.6c-0.2-0.1-0.3-0.3-0.2-0.7c1.6-11.8-6.1-25.6-17.6-29.6c-3.7-1.3-8.2-1-12.2-1c-5,0-17.6,5.9-10.5,12.9
			c2.4,2.3,4.3,4.7,5.7,7.2c0.2,0.3,0.2,0.6,0,0.9c-1.3,2.5-5.4,8.6-8.9,5.7c-9.6-7.9-15.4-22.2-3.8-31.4c0.7-0.5,1-1.5,1-2.8
			L137.4,104.5z"/>
		<path class="st16" d="M173.6,105c-1.1,0.8-1.5,1.8-1,3c0.1,0.3,0.3,0.5,0.6,0.7c5.8,4.2,10,9.6,12.5,16.3c0.7,1.9,2.4,5,2.4,7.1
			c0.1,3.6,0.2,7.1,0.3,10.7c0.2,8.4-3.8,15.7-8.4,22.3c-1.8,2.7-4.9,4.6-6.8,7.8c-0.4,0.6,0.1,1.4,0.8,1.3c0.8-0.1,1.9-0.4,2.5-1
			c5.3-5.3,10.7-6.7,16.9-10.2c4.1-2.4,7.9-3.1,11.9-4.6c2.7-1,6.2-1.6,9.2-3c1.4-0.7,2.9-0.4,4.4-1.1c2.8-1.4,5.8-1.8,8.9-1.3
			c0.3,0.1,0.4,0.2,0.4,0.5l-0.3,1c-21.2,4.1-41.9,12.3-59,25.8c-0.3,0.2-0.3,0.5,0,0.7l19.3,16.8c0.7,0.6,1.1,1.5,1.1,2.5l0,122.9
			c0,0.6-0.4,1.1-1,1.1c-10.2,0.9-20.5,1.1-30.9,0.7c-0.9,0-1.7,0.1-2.5,0.4c-0.3,0.1-0.5,0.3-0.7,0.6l-12,26.4
			c-0.2,0.4,0.2,0.9,0.6,0.8c14.9-3.7,31-6.9,46-6.2c0.3,0,0.5,0.2,0.5,0.5l0.2,10c0,0.5-0.2,0.8-0.8,0.9c-11.8,1.5-23,4.8-33.7,9.9
			c-0.7,0.4-0.9,1.3-0.4,1.9l2.5,2.8c0.2,0.3,0.6,0.4,0.9,0.2c9.4-4,19.2-6.5,29.4-7.3c1.3-0.1,2,0.5,2,1.8v83.3
			c0,0.3-0.1,0.7-0.4,0.9c-0.8,0.9-1.9,1.9-3.2,3c-8.6,7-18.1,14.7-28.5,23.1c-1,0.8-0.8,1.2,0.4,1.2c22.5,0,45.4,0,68.6-0.1
			c1.6,0,3.2,0.2,4.8,0.5l-0.1,2.4c-0.3-0.7-0.9-1.2-1.8-1.1c-19.4,0.6-38.7,0.8-58.1,0.6c-2.1,0-5.3,0.6-8.1,0
			c-2.9-0.6-5.9-0.1-8.6-1.3c-0.5-0.2-0.6-0.5-0.2-0.9c5.4-5.9,11.3-11.2,17.7-16c4.7-3.5,8.3-8.1,13.4-11.5
			c0.3-0.2,0.5-0.4,0.6-0.7c1.9-5.7,1.3-13.2,1.1-20.4c-0.1-5,0.4-12-0.1-18c-0.2-2.6,0.3-5.1,0.2-7.8c-0.4-11.9-0.1-23.8-0.4-35.5
			c0-0.9-0.8-1.6-1.7-1.4c-2.8,0.5-5.8,1-8.9,1.5c-1.2,0.2-2.8,0-4.3,0.8c-3.6,2-12,5.5-15.2,4.7c-2.2-0.5-3.2-3.8-3.6-5.7
			c-0.1-0.3,0-0.7,0.2-1c1.7-2.5,12.6-7,15.2-7.6c6.1-1.5,12.2-2.7,18.4-3.6c0.3,0,0.5-0.2,0.4-0.6c-0.2-1.6-0.1-3.2,0.1-4.8
			c0.3-1.8,0-3.3-2.2-2.9c-0.3,0.1-0.6,0.2-0.8,0.4c-0.1,0.2-0.3,0.3-0.6,0.3l-10.5,0.8c-0.3,0-0.6,0-0.8-0.1
			c-3.1-0.9-5.8,0.7-8.8,1.5c-0.8,0.2-2,0.3-3.8,0.2c-2.8-0.1-5.5,1.4-7.4,1.8c-3.1,0.7-6.5,1.2-10.4,1.5c-0.8,0.1-1.5-0.8-1.2-1.6
			c0.1-0.4,0.1-0.7-0.2-1c-0.2-0.3-0.3-0.6-0.3-1c0.1-0.6,0.4-1.1,0.8-1.5c0.3-0.2,0.5-0.5,0.6-0.9c2.6-8.9,7.1-16.6,10.2-25.1
			c0.1-0.4,0.5-0.7,1-0.7l27.4-0.7c0.4,0,0.7-0.1,1-0.4c1.3-1,2.6-1.3,4.1-0.7c0.8,0.3,1.7-0.2,1.8-1c0.5-3.4-0.1-6.7-0.2-9.2
			c-0.3-9.3-0.4-18.6-0.4-28c0-1.6,0.4-3.5,0.3-4.9c-0.4-7.4-0.1-15-0.2-22.4c0-4.9,0.3-10.7-0.2-16.2c0-0.3,0-0.6,0.2-0.9
			c0.1-0.3,0.2-0.6,0.1-0.9c-0.6-3.4,0.1-7.3,0.1-9.8c0-2.4,0.1-4.7,0.1-7.1c0,0,0-0.1,0-0.1c-0.1-0.1-0.2-0.1-0.2-0.2
			c-0.2-0.2-0.3-0.4-0.2-0.7c0.9-6.8-0.2-13.1,0-19.8c0-0.4-0.1-0.7-0.4-0.9l-20.4-18.1c-0.7-0.6-1.8-0.6-2.4,0.2
			c-1.2,1.5-2.7,2.9-4.5,4.3c-5.8,4.4-11.7,9.7-16.9,13.7c-11.7,9-24.1,18.5-32.2,31c-4.6,7.1-9.3,14.3-10.4,22.9
			c-0.3,2.5-2,3.6-1.8,6.5c0.2,4.2,0.4,7.1,0.6,8.7c0,0.2,0.2,0.5,0.4,0.7c0.2,0.2,0.4,0.5,0.5,0.8c1.2,4.1,1.1,7.9,1.9,12
			c0.6,2.9,0.4,5.2,1.4,8c2.6,7.2,3.9,14,8.4,21.2c1.4,2.3,3.4,5.1,5.8,8.4c3.1,4,7.6,9,9.2,13.1c3.3,8.5-2.1,13.8-8.4,18.6
			c-0.9,0.7-0.7,2,0.3,2.5c4.6,2.2,10,8,9.3,13.6c-0.3,2.7-0.2,4.6-1.7,6.9c-2.2,3.5-4.8,6.8-7.7,9.8c-2.1,2.2-3.7,4.1-4.7,5.8
			c-5.8,9.8-9.8,20.3-12,31.5c-0.3,1.4-0.1,3-0.4,4.5c-1.5,5.4-2.9,14.2-1.3,19.6c0.4,1.4,0.5,2.8,0.2,4.3c0,0.3,0,0.6,0.3,0.8
			c1.4,1.2,0.9,2.6,1.2,3.9c0.5,2.1,0.8,4.3,1,6.6c0,0.3,0.2,0.6,0.5,0.8c1.2,0.9,1.9,2,2.2,3.4c0.1,0.3,0.2,0.6,0.5,0.7
			c0.7,0.3,1.1,0.8,1.3,1.5c2,7.5,7.5,13.4,12.6,18.6c0.1,0.1,0.2,0.2,0.4,0.2h0.4c0.3,0,0.6,0.1,0.8,0.4
			c5.8,6.6,14.3,12.8,19.4,17.1c5.4,4.5,11.8,7.9,16.8,12.8c13.1,12.8,31.7,25.1,31.8,45.9c0.1,14.9-5.5,27.4-17.9,36
			c-1,0.7-0.8,2.1,0.3,2.5c4.1,1.4,7.4,1,11.7,1.7l-26.7,0c19.3-4.5,31.5-21.5,30.3-40.9c-0.7-11.8-8-21.8-16.5-29.8
			c-22.3-20.8-46.7-33.8-63.1-57.7c-15.3-22.1-11.4-47.2-3-70.7c4.1-11.4,10.2-19.3,19.7-30.8c0.5-0.6,0.9-1.8,1.2-3.6
			c1.1-6.2-6.6-12.6-11.1-16.1c-0.3-0.2-0.3-0.6-0.1-0.8c4.6-4.3,12.5-10,10.8-17c-0.4-1.7-2-4.2-4.7-7.5
			c-6.2-7.5-11-13.7-14.9-23.7c-4.8-12.4-7.7-24.4-8.5-36.1c-2.7-37.1,32.1-61.5,58.3-81.2c19.2-14.5,39.6-34.1,28.7-61.1
			c-3.9-9.6-10.7-16.6-20.5-21L173.6,105z"/>
		<path class="st17" d="M130.1,105.2c0,1.3-0.3,2.3-1,2.8c-11.6,9.2-5.8,23.5,3.8,31.4c3.5,2.9,7.6-3.2,8.9-5.7
			c0.1-0.3,0.1-0.7,0-0.9c-1.4-2.5-3.3-4.9-5.7-7.2c-7.1-6.9,5.5-12.8,10.5-12.9c4,0,8.5-0.3,12.2,1c11.5,4,19.1,17.8,17.6,29.6
			c-0.1,0.3,0,0.6,0.2,0.7c0.2,0.1,0.3,0.3,0.3,0.6c-0.6,8.9-9.5,19.2-15.5,24.1c-3.7,3-6.8,6.4-10.6,8.1c-4.6,2-6.8,5.9-9.8,8.3
			c-8.6,6.7-16.9,13.8-25,21.1c-5.2,4.7-9.5,10-14.1,15.3c-4.9,5.6-8.7,14.3-10.8,20.4c-5.6,16.5-3.7,28.4-0.7,47.2
			c0.6,3.9,1.1,6.4,1.5,7.6c3,9.2,6.1,18.9,11.5,26.6c3.2,4.6,6.9,8.8,10.9,12.6c1.2,1.1,1.1,2.2-0.1,3.2c-3.2,2.8-6.4,5.8-9.7,8.8
			c-1.4,1.3-1.6,2.8-0.7,4.6c0.1,0.3,0.2,0.6,0.1,0.9c-1.2,5.2,7.5,10.7,10.7,14c0.4,0.4,0.4,1,0.1,1.4c-5,6-10,12.1-15,18.2
			c-0.8,1-1.1,2.5-0.9,4.5c0,0.3,0,0.6-0.2,0.9c-1.5,2.5-2.7,5.2-3.6,8c-3.5,10.5-5.5,18.3-6,23.2c-0.7,5.9-2.1,11.7-1.8,17.5
			c0.3,6.6,0.8,12,1.7,16c4,18.7,17.9,35,32.6,47.4c5.9,5,12,9.7,17.7,14.9c2,1.8,4.4,3,6.3,4.5c3.8,3,7.7,5.6,11,9.1
			c10.3,10.5,18.7,15.9,21.2,30.7c0.4,2.5-0.6,4.8-1,6.6c-2,10.9-10.3,19.3-20.8,22.8c-1.4,0.5-4.4,0.6-8.9,0.3
			c-8.4-0.5-18.3-8.5-8.6-16.4c2.1-1.7,2.8-2.6,3-5.1c0-0.3-0.1-0.6-0.3-0.9c-1.9-2.3-3.8-5.8-7.2-5.8c-0.3,0-0.6,0.1-0.8,0.3
			c-6.2,5.2-11.7,13.7-10.3,21.9c0.8,4.4,3.6,10.3,8.2,12c0.3,0.1,0.5,0.3,0.6,0.7c0.2,1.1-0.2,2-1.2,2.6l-58.5,0.3
			c-0.3,0-0.5-0.2-0.5-0.5V105.4c0-0.3,0.2-0.5,0.5-0.5L130.1,105.2z"/>
		<path class="st17" d="M173.6,105l317.2,0c0.3,0,0.5,0.2,0.5,0.5v411c0,0.3-0.4,0.5-0.6,0.2l-6.1-7.7l-1.1-2
			c-0.2-0.3-0.2-0.6-0.2-0.9V113.4c0-0.3-0.2-0.5-0.5-0.5H231.6c-0.3,0-0.5,0.2-0.5,0.5v40.3l-3.2,0.9l0.3-1c0.1-0.3,0-0.5-0.4-0.5
			c-3.1-0.5-6.1-0.1-8.9,1.3c-1.5,0.7-2.9,0.4-4.4,1.1c-3,1.4-6.5,2-9.2,3c-4.1,1.4-7.8,2.2-11.9,4.6c-6.2,3.5-11.6,4.9-16.9,10.2
			c-0.6,0.6-1.7,1-2.5,1c-0.7,0-1.2-0.7-0.8-1.3c1.9-3.3,4.9-5.2,6.8-7.8c4.6-6.6,8.5-14,8.4-22.3c-0.1-3.6-0.2-7.2-0.3-10.7
			c-0.1-2.1-1.7-5.2-2.4-7.1c-2.5-6.7-6.6-12.1-12.5-16.3c-0.3-0.2-0.5-0.4-0.6-0.7C172.2,106.8,172.5,105.8,173.6,105z"/>
		<path class="st18" d="M484.7,509c-2.4-0.6-3.3-3.5-4.4-4.9c-17.8-23.6-35.6-47.2-53.5-70.8c-6-7.9-12.9-15.1-19.4-22.6
			c-10.1-11.6-19.8-24.3-29-38.3c0.6-0.5,0.9-0.8,0.6-1.1c-2.8-3.5-4.4-7.5-6.9-11c-5.3-7.4-9.2-16.5-13.8-24.6
			c-0.2-0.3-0.1-0.5,0.3-0.6c44.8-12.2,85.3-47.6,74.7-98.7c-2.2-10.4-6.3-19.3-12.4-26.6c-2.5-3.7-5.3-6.9-8.4-9.7
			c-0.2-0.2-0.5-0.2-0.7,0c-0.2,0.2-0.2,0.5-0.1,0.7c3.1,4,6,8.1,8.7,12.3c2.1,3.3,3.8,6.7,4.9,10.2c1.3,3.9,2.4,7.8,3.2,11.8
			c1.3,5.9,0.6,12.4,0.9,18.7c0,0.2-0.1,0.3-0.2,0.4l-0.6,0.6c-0.1,0.1-0.2,0.3-0.2,0.5l-0.9,10.5c0,0.3-0.2,0.5-0.4,0.7
			c-0.1,0.1-0.2,0.2-0.3,0.2c-0.2,0.1-0.3,0.4-0.3,0.6c-0.1,2.9-0.5,4.4-2.1,7.2c-0.9,1.5-0.8,3.2-1.5,4.6
			c-2.5,4.8-5.5,9.3-8.9,13.5c-0.2,0.3-0.5,0.5-0.9,0.5c-0.3,0-0.6,0.2-0.8,0.5c-3.3,4.6-7.3,8.4-12,11.4c-0.6,0.4-1.8,1.3-3.7,2.7
			c-1.8,1.3-3.8,1.9-5.3,3.1c-3.8,2.7-6.8,4.5-9.1,5.5c-11.4,5.2-23.1,9.6-34.9,13.2c-0.8,0.2-1.1,1.1-0.6,1.8
			c1.5,2.3,4.8,6.1,5.1,8.5c0,0.2,0.1,0.4,0.2,0.6c2.4,3.6,4.4,7.3,6.2,11.2c2.3,4.9,4.7,8.5,7.6,12.7c0.4,0.6,1,1.7,1.7,3.4
			c0.7,1.6,1.9,2.8,2.7,4.3c0.8,1.5,1.7,2.8,2.8,4.1c3.3,3.8,5.7,8.2,8.6,12.3c1.3,1.8,2.1,4.9,4.3,6.7c3.8,3.1,6.7,7.6,9.5,11.6
			c2.4,3.3,5.8,6,7.9,9c2.5,3.5,4.7,8,7.7,11c1.2,1.2,2,2.1,2.5,2.7c8.5,11.9,17.1,23.7,25.8,35.5c0.4,0.5,1.5,2.3,3.4,5.3
			c1.5,2.4,3.8,4.8,5.2,6.7c8.6,11.8,17.6,23.4,26,35.3c1.7,2.4,4.6,5.5,6.4,8.6c1.1,1.9,2.2,3.3,3.3,4.3l-0.3,23.2
			c-11-12.7-20.8-25-29.3-36.7c-20-27.4-40.2-56.4-60.8-87.1c-21.7-32.3-47.5-62.9-63.7-98.5c-0.1-0.3,0-0.7,0.4-0.8
			c36.1-9.8,81.2-32.2,82.6-75.8c1.2-37.8-16.3-62.4-48.4-78.7c-40.9-20.8-88-24.5-132.9-16.9v-40.3c0-0.3,0.2-0.5,0.5-0.5h251.2
			c0.3,0,0.5,0.2,0.5,0.5v392.6c0,0.3,0.1,0.6,0.2,0.9L484.7,509z"/>
		<path class="st19" d="M483.2,548.3c2,2.8,4.5,5.3,7.5,7.4l7.8,6.6c0.3,0.3,0.3,0.5-0.1,0.5l-7.2,1.8l-7.7,2.3
			c-23.7,7.7-46.8,17-69.2,27.9c-5.1,1.9-9.8,4.5-14.2,7.8c-1,0.8-1.6,0.8-1.9,0.1l-1-8c-9.3-38.1-21-75.9-35.3-112.7
			c-11.7-30.1-23-60.3-34-90.6c-4.3-11.9-12.9-23.9-19.3-34.7c-1.1-1.8-1.9-4.3-3-6.4c-0.2-0.3-0.4-0.4-0.8-0.3
			c-15.7,6.8-32.5,8.4-49.5,8.6c-0.4,0-0.7,0.3-0.7,0.7v88.8c0,0.3,0.1,0.6,0.4,0.9l43.1,47.4c0.6,0.7,0.5,1-0.4,1h-66.3
			c-0.1,0-0.2,0.1-0.3,0.1c-0.2,0.2-0.2,0.2-0.2,0l-56.9-0.1c-0.4,0-0.7-0.1-1-0.4l-5-5.7c-0.6-0.6-0.4-1,0.4-1
			c20.6,0,41.3,0,61.9,0c0.1-0.2,0.3-0.3,0.6-0.3l53.6,0.3c0.2,0,0.4-0.3,0.2-0.5L250,453.8c-0.9-0.9-1.4-2.1-1.4-3.4v-97
			c0-0.4,0.2-0.6,0.6-0.6c18-1.3,36.4-2.2,53.6-8.1c0.3-0.1,0.5-0.5,0.3-0.8l-5.2-10c-0.2-0.3-0.5-0.5-0.9-0.4
			c-19.4,4.7-39.6,7-59.5,8.8c-0.4,0-0.6,0.2-0.6,0.7v108.5c0,0.5,0.2,0.9,0.5,1.2l30.6,26.9c0.1,0.1,0,0.3-0.1,0.3l-36.8,0
			c-1.6-0.3-3.2-0.5-4.8-0.5c-23.2,0-46.1,0.1-68.6,0.1c-1.3,0-1.4-0.4-0.4-1.2c10.4-8.4,19.9-16.2,28.5-23.1c1.3-1.1,2.4-2.1,3.2-3
			c0.2-0.3,0.4-0.6,0.4-0.9v-83.3c0-1.3-0.7-1.9-2-1.8c-10.2,0.8-20,3.3-29.4,7.3c-0.4,0.1-0.7,0.1-0.9-0.2l-2.5-2.8
			c-0.5-0.6-0.3-1.5,0.4-1.9c10.7-5.1,21.9-8.4,33.7-9.9c0.5-0.1,0.8-0.4,0.8-0.9l-0.2-10c0-0.3-0.2-0.5-0.5-0.5
			c-15-0.7-31,2.5-46,6.2c-0.4,0.1-0.8-0.3-0.6-0.8l12-26.4c0.1-0.3,0.3-0.5,0.7-0.6c0.8-0.3,1.6-0.5,2.5-0.4
			c10.5,0.4,20.8,0.1,30.9-0.7c0.6,0,1-0.5,1-1.1l0-122.9c0-1-0.4-1.9-1.1-2.5l-19.3-16.8c-0.3-0.2-0.3-0.5,0-0.7
			c17.1-13.5,37.8-21.6,59-25.8l3.2-0.9c44.9-7.6,91.9-3.8,132.9,16.9c32.1,16.3,49.6,41,48.4,78.7c-1.4,43.6-46.6,66-82.6,75.8
			c-0.4,0.1-0.5,0.5-0.4,0.8c16.2,35.6,42,66.2,63.7,98.5c20.5,30.7,40.8,59.7,60.8,87.1C462.5,523.4,472.2,535.6,483.2,548.3z
			 M345.6,213.7c-12.2-6.7-25.1-10.6-38.7-11.8c-15.8-1.4-34.9-0.6-51.8,0.5c-0.3,0-0.5,0.2-0.5,0.5v116.5c0,0.3,0.2,0.5,0.5,0.5
			c16.7-1.7,33-5.2,48.8-10.5c32.3-10.8,57.1-32.3,54.8-69.5c-3.4-55.3-63.7-67.9-107.6-59.2c-4.9,1-9.5,2.5-13.9,4.7
			c-0.2,0.1-0.3,0.3-0.3,0.5l0,134.4c0,0.4,0.2,0.6,0.6,0.6l10.6-0.7c0.4,0,0.5-0.2,0.5-0.6l0-122.2c0-0.5,0.2-0.8,0.8-0.8
			c14.2-1.2,28.5-1.6,43.1-1.2c18.6,0.5,39.5,5,53.3,18C346.3,213.9,346.2,214,345.6,213.7z"/>
		<path class="st18" d="M345.7,213.5c-13.9-13-34.8-17.5-53.3-18c-14.5-0.4-28.9,0-43.1,1.2c-0.5,0.1-0.8,0.3-0.8,0.8l0,122.2
			c0,0.4-0.2,0.5-0.5,0.6l-10.6,0.7c-0.4,0-0.6-0.2-0.6-0.6l0-134.4c0-0.2,0.1-0.4,0.3-0.5c4.4-2.2,9.1-3.7,13.9-4.7
			c43.9-8.7,104.2,3.9,107.6,59.2c2.3,37.2-22.5,58.7-54.8,69.5c-15.9,5.3-32.2,8.8-48.8,10.5c-0.3,0-0.5-0.1-0.5-0.5V203
			c0-0.3,0.2-0.5,0.5-0.5c16.9-1.2,35.9-1.9,51.8-0.5c13.6,1.2,26.6,5.1,38.7,11.8C346.2,214,346.3,213.9,345.7,213.5z"/>
		<path class="st17" d="M231.1,482.2l-0.1,7.9c-0.4,0-0.6,0.1-0.6,0.3c-20.7,0-41.3,0-61.9,0c-0.9,0-1,0.3-0.4,1l5,5.7
			c0.3,0.3,0.6,0.4,1,0.4l56.9,0.1l0.3,96.6c0,0.4,0.2,0.5,0.5,0.5h165.4l1,8l-215.2,0c-4.2-0.7-7.5-0.3-11.7-1.7
			c-1.1-0.4-1.3-1.8-0.3-2.5c12.4-8.6,18-21.1,17.9-36c-0.1-20.7-18.8-33.1-31.8-45.9c-5-4.9-11.4-8.3-16.8-12.8
			c-5.1-4.3-13.6-10.5-19.4-17.1c-0.2-0.2-0.5-0.4-0.8-0.4h-0.4c-0.2,0-0.3-0.1-0.4-0.2c-5.1-5.2-10.6-11.1-12.6-18.6
			c-0.2-0.6-0.6-1.1-1.3-1.5c-0.3-0.1-0.5-0.4-0.5-0.7c-0.3-1.5-1-2.6-2.2-3.4c-0.3-0.2-0.4-0.5-0.5-0.8c-0.2-2.2-0.5-4.4-1-6.6
			c-0.3-1.3,0.2-2.6-1.2-3.9c-0.2-0.2-0.3-0.5-0.3-0.8c0.2-1.5,0.2-2.9-0.2-4.3c-1.6-5.4-0.2-14.2,1.3-19.6c0.4-1.4,0.2-3.1,0.4-4.5
			c2.2-11.3,6.2-21.8,12-31.5c1-1.7,2.6-3.6,4.7-5.8c2.9-3,5.5-6.2,7.7-9.8c1.5-2.3,1.3-4.2,1.7-6.9c0.7-5.6-4.7-11.4-9.3-13.6
			c-1-0.5-1.1-1.8-0.3-2.5c6.3-4.8,11.7-10.1,8.4-18.6c-1.6-4.1-6.1-9.1-9.2-13.1c-2.5-3.3-4.4-6.1-5.8-8.4
			c-4.5-7.2-5.7-14-8.4-21.2c-1-2.8-0.8-5.1-1.4-8c-0.8-4-0.8-7.9-1.9-12c-0.1-0.3-0.3-0.6-0.5-0.8c-0.2-0.2-0.4-0.4-0.4-0.7
			c-0.2-1.6-0.4-4.5-0.6-8.7c-0.1-2.9,1.5-4,1.8-6.5c1.1-8.6,5.8-15.8,10.4-22.9c8.2-12.4,20.6-22,32.2-31c5.2-4,11.1-9.3,16.9-13.7
			c1.8-1.4,3.3-2.8,4.5-4.3c0.6-0.8,1.7-0.9,2.4-0.2l20.4,18.1c0.3,0.2,0.4,0.5,0.4,0.9c-0.2,6.8,0.9,13,0,19.8c0,0.3,0,0.5,0.2,0.7
			c0.1,0.1,0.2,0.2,0.2,0.2c0,0,0.1,0.1,0,0.1c-0.1,2.3-0.1,4.7-0.1,7.1c0,2.5-0.7,6.5-0.1,9.8c0.1,0.3,0,0.6-0.1,0.9
			c-0.2,0.3-0.2,0.7-0.2,0.9c0.5,5.4,0.1,11.3,0.2,16.2c0,7.4-0.2,15,0.2,22.4c0.1,1.4-0.3,3.4-0.3,4.9c0,9.3,0.1,18.6,0.4,28
			c0.1,2.5,0.8,5.8,0.2,9.2c-0.1,0.8-1,1.3-1.8,1c-1.5-0.6-2.8-0.3-4.1,0.7c-0.3,0.2-0.6,0.4-1,0.4l-27.4,0.7c-0.4,0-0.8,0.3-1,0.7
			c-3.1,8.5-7.6,16.2-10.2,25.1c-0.1,0.4-0.3,0.6-0.6,0.9c-0.4,0.4-0.7,0.9-0.8,1.5c-0.1,0.4,0,0.7,0.3,1c0.2,0.3,0.3,0.6,0.2,1
			c-0.3,0.8,0.4,1.6,1.2,1.6c3.8-0.3,7.3-0.8,10.4-1.5c1.9-0.4,4.6-1.9,7.4-1.8c1.7,0,3,0,3.8-0.2c3-0.7,5.7-2.4,8.8-1.5
			c0.3,0.1,0.5,0.1,0.8,0.1l10.5-0.8c0.2,0,0.4-0.1,0.6-0.3c0.2-0.2,0.4-0.4,0.8-0.4c2.2-0.4,2.5,1.1,2.2,2.9
			c-0.2,1.6-0.3,3.2-0.1,4.8c0,0.3-0.1,0.5-0.4,0.6c-6.2,0.9-12.4,2.1-18.4,3.6c-2.6,0.6-13.5,5.1-15.2,7.6c-0.2,0.3-0.3,0.6-0.2,1
			c0.4,2,1.4,5.2,3.6,5.7c3.1,0.8,11.6-2.8,15.2-4.7c1.4-0.8,3.1-0.5,4.3-0.8c3.1-0.5,6.1-1,8.9-1.5c0.9-0.2,1.7,0.5,1.7,1.4
			c0.3,11.6,0,23.5,0.4,35.5c0.1,2.7-0.4,5.2-0.2,7.8c0.5,6,0,13,0.1,18c0.1,7.2,0.8,14.7-1.1,20.4c-0.1,0.3-0.3,0.6-0.6,0.7
			c-5.1,3.4-8.7,8-13.4,11.5c-6.4,4.8-12.4,10.1-17.7,16c-0.4,0.4-0.3,0.7,0.2,0.9c2.7,1.2,5.7,0.7,8.6,1.3c2.8,0.6,6,0,8.1,0
			c19.4,0.2,38.7,0,58.1-0.6C230.1,481,230.7,481.5,231.1,482.2z"/>
		<path class="st15" d="M420.9,209.9c6.1,7.3,10.3,16.1,12.4,26.6c10.5,51.1-30,86.5-74.7,98.7c-0.4,0.1-0.4,0.3-0.3,0.6
			c4.5,8.1,8.4,17.2,13.8,24.6c2.5,3.5,4,7.5,6.9,11c0.2,0.3,0,0.6-0.6,1.1c-7.9-12-14.9-24.3-21.2-37.1c-0.2-0.4,0-0.9,0.4-1
			c44.8-13.1,84.5-46.5,75-98.2C431,227.1,427.1,218.4,420.9,209.9z"/>
		<path class="st18" d="M230.9,490.1l0.1-7.9l0.1-2.4l36.8,0c0.2,0,0.3-0.2,0.1-0.3l-30.6-26.9c-0.3-0.3-0.5-0.7-0.5-1.2V342.9
			c0-0.4,0.2-0.6,0.6-0.7c19.9-1.8,40-4.1,59.5-8.8c0.4-0.1,0.7,0.1,0.9,0.4l5.2,10c0.1,0.3,0,0.7-0.3,0.8
			c-17.2,5.9-35.6,6.8-53.6,8.1c-0.4,0-0.6,0.2-0.6,0.6v97c0,1.3,0.5,2.5,1.4,3.4l34.8,36.1c0.2,0.2,0,0.5-0.2,0.5L230.9,490.1z"/>
		<path class="st18" d="M397.1,594.7H231.7c-0.3,0-0.5-0.2-0.5-0.5l-0.3-96.6c0,0.2,0.1,0.2,0.2,0c0.1-0.1,0.2-0.1,0.3-0.1h66.3
			c0.9,0,1-0.3,0.4-1L255,449.1c-0.2-0.2-0.4-0.6-0.4-0.9v-88.8c0-0.4,0.3-0.7,0.7-0.7c16.9-0.2,33.7-1.8,49.5-8.6
			c0.3-0.1,0.6-0.1,0.8,0.3c1.1,2.1,1.9,4.6,3,6.4c6.4,10.8,15,22.8,19.3,34.7c11,30.3,22.3,60.6,34,90.6
			C376.1,518.8,387.8,556.6,397.1,594.7z"/>
		<path class="st17" d="M483.5,525.1l7.5,9.4c0.2,0.3,0.3,0.5,0.3,0.9c0,6.4,0,12.7,0,19c0,0.2-0.2,0.7-0.7,1.3
			c-3-2.1-5.5-4.5-7.5-7.4L483.5,525.1z"/>
		<path class="st17" d="M491.2,564.6l0.1,8.4c0,0.4-0.2,0.6-0.5,0.8l-7.2,2.8l-0.1-9.6L491.2,564.6z"/>
		<path class="st15" d="M491.2,581.7l-7.7,2.8c-9.2,2.9-18.2,6.5-26.9,10.6c-5.4,1.6-10.5,4.1-15.4,7.4l-17.8,10h-0.8l-1.1-1
			c0.6,0.1,1,0.1,1.5-0.2c35.3-22,74.8-33.7,113.9-44.5c0.2,0,0.4,0,0.5,0.2c0.1,0.2,0.1,0.4,0,0.6c-0.1,0.1-0.2,0.2-0.4,0.3
			C521.4,572,506.2,576.6,491.2,581.7z"/>
		<path class="st18" d="M483.4,566.9l0.1,9.6c-11.9,4.4-19.6,7.4-22.8,9c-4.2,2.1-9.1,3.7-11.9,4.9c-3.1,1.4-6.1,2.8-9.1,4.2
			l-25.5,0C436.7,583.8,459.7,574.5,483.4,566.9z"/>
		<path class="st17" d="M491.2,581.7l0.1,20.5c0,0.3-0.2,0.5-0.5,0.5l-49.6-0.2c4.9-3.3,10-5.8,15.4-7.4l26.2-0.3
			c0.4,0,0.5-0.2,0.6-0.6l0.2-9.8L491.2,581.7z"/>
		<path class="st18" d="M483.5,584.4l-0.2,9.8c0,0.4-0.2,0.6-0.6,0.6l-26.2,0.3C465.3,590.9,474.3,587.4,483.5,584.4z"/>
		<path class="st17" d="M414.3,594.8l25.5,0c-4.4,2.2-13.2,8-17.8,8c-7.2,0-14.5,0-21.9-0.1C404.4,599.3,409.2,596.7,414.3,594.8z"
			/>
		<path class="st19" d="M421.4,611.4c-1.8-0.4-3.4-1.1-4.8-2.3c-0.1,0-0.1-0.1,0-0.2c0-0.1,0.1-0.1,0.2,0L421.4,611.4z"/>
	</g>
	<g>
		<path class="st0" d="M570.6,749.2H40.5c-11.5,0-20.9-9.4-20.9-20.9v-67.9c0-11.5,9.4-20.9,20.9-20.9h530.2
			c11.5,0,20.9,9.4,20.9,20.9v67.9C591.5,739.8,582.1,749.2,570.6,749.2z"/>
		<path class="st20" d="M32.5,740.1c-6.7-4.6-8.1-10-8.1-18.4c0-17.9,0-35.8,0-53.8c0-13.5,5.7-23.1,20.5-23
			c80.7,0.6,145,0.7,216.4,0.6c5.1,0,14.8-0.7,22.3-0.2c0.6,0.1,0.8,0.3,0.5,0.9l-43.9,95.5c-0.5,1-1.5,1.7-2.7,1.7
			c-66.1,0-131.5,0-196.2,0C38.8,743.5,35.8,742.4,32.5,740.1z M69.2,701c7.8-1.3,12.5,1.8,14.1,9.2c1.4,6.9,2.9,12.8,4.3,17.5
			c0.1,0.5,0.6,0.8,1.1,0.8l12,0.3c0.6,0,0.9-0.3,0.7-0.9c-2.7-9.7-4.1-25-12.8-31.2c-0.6-0.4-0.5-0.8,0-1.1
			c9.6-5.9,12.7-13.8,9.5-23.5c-5.4-16.3-30.1-13.4-42.2-11.7c-0.7,0.1-1,0.5-1,1.1v66.2c0,0.6,0.3,0.9,0.9,0.9l11.7,0
			c0.6,0,0.9-0.3,0.9-0.9V702C68.4,701.4,68.7,701.1,69.2,701z M123.7,711.2c0.1-0.2,0.3-0.4,0.5-0.4h18.2c0.2,0,0.4,0.2,0.5,0.4
			l4.3,17c0.1,0.2,0.3,0.4,0.5,0.4h13c0.3,0,0.6-0.3,0.5-0.7l-19.1-67.8c-0.1-0.2-0.3-0.4-0.5-0.4l-16,0.1c-0.2,0-0.4,0.2-0.5,0.4
			l-19.3,67.6c-0.1,0.3,0.1,0.6,0.5,0.7l12.3,0.7c0.3,0,0.5-0.2,0.5-0.4L123.7,711.2z M183.8,676.9l13,49.9c0.2,0.7,0.6,1,1.4,1h8.3
			c0.8,0,1.4-0.4,1.6-1.2L223,676c0,0,0-0.1,0.1-0.1c0,0,0.1,0,0.1,0.1l2.2,51.2c0.1,1,0.6,1.5,1.5,1.5l10.1,0.1c0.7,0,1-0.3,0.9-1
			l-3.7-67.1c0-0.6-0.3-0.8-0.9-0.8h-14.9c-0.7,0-1.2,0.4-1.4,1.1l-13.3,47.5c0,0.1-0.2,0.1-0.3,0l-12.9-47.9
			c-0.1-0.5-0.5-0.8-1-0.8l-14.7-0.1c-0.8,0-1.2,0.4-1.3,1.2l-4.6,66.5c-0.1,0.8,0.3,1.2,1.1,1.2h10c0.7,0,1-0.3,1-1l2.6-50.8
			C183.6,676.3,183.7,676.3,183.8,676.9z"/>
		<path class="st17" d="M327.4,645.5c79.4,0,158.9,0,238.4,0c10.8,0,18.8,5.4,19.1,16.7c0.3,7.8,0.3,26.4,0.1,55.6
			c-0.1,19.2-4.2,25.6-23.5,25.6c-105.1,0-210.1,0-315.1,0c-0.5,0-0.9,0.1-1.3,0.3c-0.4,0.2-0.8,0.2-1.2,0.2
			c-0.2-0.3-0.4-0.6-0.4-0.9c-0.1-0.3,0-0.6,0.1-0.9c14.5-32.1,29.3-64.2,44.2-96.3c0.3-0.5,0.7-0.8,1.3-0.8L327.4,645.5z
			 M310.7,699.7c0-0.3,0.3-0.6,0.6-0.6h13.2c0.3,0,0.6-0.3,0.6-0.6v-11.4c0-0.3-0.3-0.6-0.6-0.6h-13.1c-0.3,0-0.6-0.3-0.6-0.6v-12.7
			c0-0.3,0.3-0.6,0.6-0.6H326c0.3,0,0.6-0.3,0.6-0.6v-11.4c0-0.3-0.3-0.6-0.6-0.6h-27.4c-0.3,0-0.6,0.3-0.6,0.6l0.1,67.1
			c0,0.3,0.3,0.6,0.6,0.6h27.7c0.3,0,0.6-0.3,0.6-0.6l-0.3-11.8c0-0.3-0.3-0.6-0.6-0.6h-14.4c-0.3,0-0.6-0.3-0.6-0.6L310.7,699.7z
			 M421.2,692.4c10.9-8.6,9.3-28.8-6.3-31.3c-7.3-1.2-15.2-1.4-23.7-0.6c-0.5,0.1-0.7,0.3-0.7,0.8v66c0,0.4,0.2,0.7,0.6,0.7
			c16.5,1.1,36.2,2.8,37.6-17.7c0.5-7.5-2-13-7.5-16.6C420.6,693.3,420.6,692.9,421.2,692.4z M463.2,660.7c0-0.4-0.3-0.7-0.7-0.7
			H450c-0.4,0-0.7,0.3-0.7,0.7v66.8c0,0.4,0.3,0.7,0.7,0.7h12.4c0.4,0,0.7-0.3,0.7-0.7V660.7z M499.3,697.2c0-0.6,0.8-0.8,1.1-0.2
			l12.5,30.9c0.1,0.2,0.3,0.3,0.5,0.3h13.1c0.4,0,0.7-0.4,0.5-0.8l-14.2-36c-0.1-0.1-0.1-0.3,0-0.4l13.5-30.1
			c0.2-0.4-0.1-0.8-0.5-0.8l-12.5-0.2c-0.2,0-0.4,0.1-0.5,0.3l-12.6,27.6c-0.3,0.6-1.1,0.4-1.1-0.2l0.1-27.2c0-0.3-0.2-0.6-0.6-0.6
			h-12c-0.3,0-0.6,0.2-0.6,0.6v67.2c0,0.3,0.2,0.6,0.6,0.6h11.9c0.3,0,0.6-0.2,0.6-0.6V697.2z M557.4,686.4c-0.3,0-0.6-0.3-0.6-0.6
			v-12.7c0-0.3,0.3-0.6,0.6-0.6l14.4,0c0.3,0,0.6-0.3,0.6-0.6v-11.4c0-0.3-0.3-0.6-0.6-0.6l-27.5,0.2c-0.3,0-0.6,0.3-0.6,0.6v66.9
			c0,0.3,0.3,0.6,0.6,0.6h27.5c0.3,0,0.6-0.3,0.6-0.6l0-11.8c0-0.3-0.3-0.6-0.6-0.6h-14.4c-0.3,0-0.6-0.3-0.6-0.6v-14.9
			c0-0.3,0.3-0.6,0.6-0.6l12.6-0.4c0.3,0,0.6-0.3,0.6-0.6l0.2-11c0-0.3-0.3-0.6-0.6-0.6H557.4z M369.6,698.6c0-0.3-0.2-0.5-0.5-0.5
			l-23.1,0.1c-0.3,0-0.5,0.2-0.5,0.5l0,13.8c0,0.3,0.2,0.5,0.5,0.5l23.1-0.1c0.3,0,0.5-0.2,0.5-0.5L369.6,698.6z"/>
		<path class="st0" d="M68.4,702v25.7c0,0.6-0.3,0.9-0.9,0.9l-11.7,0c-0.6,0-0.9-0.3-0.9-0.9v-66.2c0-0.7,0.3-1.1,1-1.1
			c12.1-1.7,36.8-4.6,42.2,11.7c3.2,9.7,0.1,17.6-9.5,23.5c-0.6,0.4-0.6,0.7,0,1.1c8.7,6.3,10.1,21.5,12.8,31.2
			c0.2,0.6-0.1,0.9-0.7,0.9l-12-0.3c-0.5,0-0.9-0.3-1.1-0.8c-1.4-4.7-2.9-10.6-4.3-17.5c-1.5-7.5-6.3-10.6-14.1-9.2
			C68.7,701.1,68.4,701.4,68.4,702z M68.5,670.5l-0.3,19.2c0,0.7,0.5,1.2,1.2,1.2l5.8,0.1c5.8,0.1,10.6-4.2,10.6-9.7l0-1.8
			c0.1-5.5-4.5-10-10.3-10.1l-5.8-0.1C69.1,669.3,68.5,669.8,68.5,670.5z"/>
		<path class="st0" d="M123.7,711.2l-4.5,17.7c-0.1,0.2-0.3,0.4-0.5,0.4l-12.3-0.7c-0.3,0-0.6-0.3-0.5-0.7l19.3-67.6
			c0.1-0.2,0.3-0.4,0.5-0.4l16-0.1c0.2,0,0.5,0.2,0.5,0.4l19.1,67.8c0.1,0.3-0.2,0.7-0.5,0.7h-13c-0.2,0-0.4-0.2-0.5-0.4l-4.3-17
			c-0.1-0.2-0.3-0.4-0.5-0.4h-18.2C124,710.8,123.8,711,123.7,711.2z M126,700.4c-0.1,0.3,0,0.4,0.3,0.4l13-0.6c0.7,0,1-0.4,0.8-1.1
			l-6.2-25.8c-0.4-1.6-0.7-1.6-1.1,0L126,700.4z"/>
		<path class="st0" d="M183.6,676.9l-2.6,50.8c0,0.7-0.4,1-1,1h-10c-0.8,0-1.1-0.4-1.1-1.2l4.6-66.5c0.1-0.8,0.5-1.2,1.3-1.2
			l14.7,0.1c0.5,0,0.9,0.3,1,0.8l12.9,47.9c0,0.1,0.2,0.2,0.3,0l13.3-47.5c0.2-0.7,0.7-1.1,1.4-1.1h14.9c0.6,0,0.9,0.3,0.9,0.8
			l3.7,67.1c0.1,0.7-0.3,1-0.9,1l-10.1-0.1c-1,0-1.5-0.5-1.5-1.5l-2.2-51.2c0,0,0-0.1-0.1-0.1c0,0-0.1,0-0.1,0.1l-14.9,50.6
			c-0.2,0.8-0.8,1.2-1.6,1.2h-8.3c-0.7,0-1.2-0.3-1.4-1l-13-49.9C183.7,676.3,183.6,676.3,183.6,676.9z"/>
		<path class="st0" d="M310.7,699.7l0.3,14.9c0,0.3,0.3,0.6,0.6,0.6H326c0.3,0,0.6,0.3,0.6,0.6l0.3,11.8c0,0.3-0.3,0.6-0.6,0.6
			h-27.7c-0.3,0-0.6-0.3-0.6-0.6l-0.1-67.1c0-0.3,0.3-0.6,0.6-0.6H326c0.3,0,0.6,0.3,0.6,0.6v11.4c0,0.3-0.3,0.6-0.6,0.6h-14.6
			c-0.3,0-0.6,0.3-0.6,0.6v12.7c0,0.3,0.3,0.6,0.6,0.6h13.1c0.3,0,0.6,0.3,0.6,0.6v11.4c0,0.3-0.3,0.6-0.6,0.6h-13.2
			C311,699.1,310.7,699.4,310.7,699.7z"/>
		<path class="st0" d="M421.2,693.7c5.5,3.6,8,9.2,7.5,16.6c-1.4,20.4-21.2,18.7-37.6,17.7c-0.4,0-0.6-0.3-0.6-0.7v-66
			c0-0.5,0.2-0.7,0.7-0.8c8.5-0.8,16.4-0.6,23.7,0.6c15.5,2.6,17.2,22.8,6.3,31.3C420.6,692.9,420.6,693.3,421.2,693.7z
			 M403.6,672.6l-0.3,14.2c0,0.9,0.6,1.5,1.5,1.6l1.1,0c5,0.1,9.2-3.5,9.3-8.1l0-0.7c0.1-4.6-3.9-8.4-8.9-8.5l-1.1,0
			C404.4,671.1,403.6,671.8,403.6,672.6z M403.5,699.8l0,14.7c0,0.9,0.7,1.6,1.5,1.6l2.5,0c4.3,0,7.7-3.4,7.7-7.5v-2.7
			c0-4.2-3.4-7.6-7.7-7.6l-2.5,0C404.2,698.2,403.5,698.9,403.5,699.8z"/>
		<path class="st0" d="M450,659.9h12.4c0.4,0,0.7,0.3,0.7,0.7v66.8c0,0.4-0.3,0.7-0.7,0.7H450c-0.4,0-0.7-0.3-0.7-0.7v-66.8
			C449.2,660.3,449.6,659.9,450,659.9z"/>
		<path class="st0" d="M499.3,697.2v30.5c0,0.3-0.2,0.6-0.6,0.6h-11.9c-0.3,0-0.6-0.2-0.6-0.6v-67.2c0-0.3,0.2-0.6,0.6-0.6h12
			c0.3,0,0.6,0.2,0.6,0.6l-0.1,27.2c0,0.6,0.8,0.8,1.1,0.2l12.6-27.6c0.1-0.2,0.3-0.3,0.5-0.3l12.5,0.2c0.4,0,0.7,0.4,0.5,0.8
			l-13.5,30.1c-0.1,0.1-0.1,0.3,0,0.4l14.2,36c0.1,0.4-0.1,0.8-0.5,0.8h-13.1c-0.2,0-0.4-0.1-0.5-0.3L500.4,697
			C500.1,696.4,499.3,696.6,499.3,697.2z"/>
		<path class="st0" d="M557.4,686.4h12.8c0.3,0,0.6,0.3,0.6,0.6l-0.2,11c0,0.3-0.3,0.6-0.6,0.6l-12.6,0.4c-0.3,0-0.6,0.3-0.6,0.6
			v14.9c0,0.3,0.3,0.6,0.6,0.6h14.4c0.3,0,0.6,0.3,0.6,0.6l0,11.8c0,0.3-0.3,0.6-0.6,0.6h-27.5c-0.3,0-0.6-0.3-0.6-0.6v-66.9
			c0-0.3,0.3-0.6,0.6-0.6l27.5-0.2c0.3,0,0.6,0.3,0.6,0.6v11.4c0,0.3-0.3,0.6-0.6,0.6l-14.4,0c-0.3,0-0.6,0.3-0.6,0.6v12.7
			C556.7,686.2,557,686.4,557.4,686.4z"/>
		<path class="st20" d="M68.5,670.5c0-0.7,0.6-1.2,1.2-1.2l5.8,0.1c5.8,0.1,10.4,4.6,10.3,10.1l0,1.8c-0.1,5.5-4.8,9.8-10.6,9.7
			l-5.8-0.1c-0.7,0-1.2-0.6-1.2-1.2L68.5,670.5z"/>
		<path class="st21" d="M403.6,672.6c0-0.8,0.7-1.5,1.6-1.5l1.1,0c5,0.1,9.1,3.9,8.9,8.5l0,0.7c-0.1,4.6-4.3,8.2-9.3,8.1l-1.1,0
			c-0.9,0-1.5-0.7-1.5-1.6L403.6,672.6z"/>
		<path class="st20" d="M126,700.4l6.8-27.1c0.4-1.5,0.8-1.5,1.1,0l6.2,25.8c0.2,0.7-0.1,1-0.8,1.1l-13,0.6
			C126,700.8,125.9,700.7,126,700.4z"/>
		<path class="st0" d="M346.1,698.2l23.1-0.1c0.3,0,0.5,0.2,0.5,0.5l0,13.8c0,0.3-0.2,0.5-0.5,0.5l-23.1,0.1c-0.3,0-0.5-0.2-0.5-0.5
			l0-13.8C345.6,698.4,345.8,698.2,346.1,698.2z"/>
		<path class="st21" d="M403.5,699.8c0-0.9,0.7-1.6,1.6-1.6l2.5,0c4.2,0,7.7,3.4,7.7,7.6v2.7c0,4.2-3.5,7.5-7.7,7.5l-2.5,0
			c-0.9,0-1.6-0.7-1.5-1.6L403.5,699.8z"/>
	</g>
</g>
</svg>
